<mxfile host="app.diagrams.net" modified="2023-10-18T16:57:16.335Z" agent="Mozilla/5.0 (X11; Linux x86_64; rv:109.0) Gecko/20100101 Firefox/114.0" version="22.0.4" etag="su-WNtHXEf1Jp3OIlxUJ" type="github">
  <diagram name="PÃ¡gina-1" id="syEhVUheKY9BLgrxMBzL">
    <mxGraphModel>
      <root>
        <mxCell id="0" />
        <mxCell id="1" parent="0" />
      </root>
    </mxGraphModel>
  </diagram>
</mxfile>
